<svg xmlns="http://www.w3.org/2000/svg" viewBox="0 0 64 64" role="img" aria-labelledby="title">
  <title id="title">GiftVibe</title>
  <rect width="64" height="64" rx="18" fill="#102E50"/>
  <path d="M17 28h30v24H17V28Z" fill="#fff"/>
  <path d="M14 22h36v10H14V22Z" fill="#fff"/>
  <path d="M30 22h5v30h-5V22Z" fill="#102E50"/>
  <path d="M32 22c-8 0-11-3-11-7 0-3 2-5 5-5 4 0 6 4 6 12Zm0 0c8 0 11-3 11-7 0-3-2-5-5-5-4 0-6 4-6 12Z" fill="none" stroke="#fff" stroke-width="4" stroke-linecap="round" stroke-linejoin="round"/>
</svg>
